<mxfile host="app.diagrams.net" modified="2023-02-22T04:19:29.992Z" agent="5.0 (Macintosh; Intel Mac OS X 10_15_7) AppleWebKit/537.36 (KHTML, like Gecko) Chrome/109.0.0.0 Safari/537.36" etag="lxo_Tf4JhBkOZCMnVTjv" version="20.8.22" type="github">
  <diagram name="Page-1" id="wcaCd7EeFezKXFBg0lFr">
    <mxGraphModel dx="799" dy="1395" grid="1" gridSize="10" guides="1" tooltips="1" connect="1" arrows="1" fold="1" page="1" pageScale="1" pageWidth="1100" pageHeight="850" math="0" shadow="0">
      <root>
        <mxCell id="0" />
        <mxCell id="1" parent="0" />
        <mxCell id="QAXlqffc3XCzaR2EPbh7-1" value="Search" style="rounded=0;whiteSpace=wrap;html=1;" parent="1" vertex="1">
          <mxGeometry x="630" y="-500" width="120" height="20" as="geometry" />
        </mxCell>
        <mxCell id="QAXlqffc3XCzaR2EPbh7-2" value="Home" style="rounded=0;whiteSpace=wrap;html=1;strokeColor=none;fillColor=#ffff88;" parent="1" vertex="1">
          <mxGeometry x="90" y="-460" width="100" height="30" as="geometry" />
        </mxCell>
        <mxCell id="QAXlqffc3XCzaR2EPbh7-3" value="About Us" style="rounded=0;whiteSpace=wrap;html=1;strokeColor=none;fillColor=#ffff88;" parent="1" vertex="1">
          <mxGeometry x="196" y="-460" width="100" height="30" as="geometry" />
        </mxCell>
        <mxCell id="QAXlqffc3XCzaR2EPbh7-4" value="Contact Us" style="rounded=0;whiteSpace=wrap;html=1;strokeColor=none;fillColor=#ffff88;" parent="1" vertex="1">
          <mxGeometry x="307" y="-460" width="100" height="30" as="geometry" />
        </mxCell>
        <mxCell id="QAXlqffc3XCzaR2EPbh7-5" value="Deals" style="rounded=0;whiteSpace=wrap;html=1;strokeColor=none;fillColor=#ffff88;" parent="1" vertex="1">
          <mxGeometry x="420" y="-460" width="89" height="30" as="geometry" />
        </mxCell>
        <mxCell id="QAXlqffc3XCzaR2EPbh7-6" value="Login" style="rounded=0;whiteSpace=wrap;html=1;strokeColor=none;fillColor=#ffff88;" parent="1" vertex="1">
          <mxGeometry x="520" y="-460" width="85" height="30" as="geometry" />
        </mxCell>
        <mxCell id="QAXlqffc3XCzaR2EPbh7-7" value="Create an account" style="rounded=0;whiteSpace=wrap;html=1;strokeColor=none;fillColor=#ffff88;" parent="1" vertex="1">
          <mxGeometry x="610" y="-460" width="130" height="30" as="geometry" />
        </mxCell>
        <mxCell id="QAXlqffc3XCzaR2EPbh7-9" value="Site Name&lt;br&gt;Tag Line" style="rounded=0;whiteSpace=wrap;html=1;" parent="1" vertex="1">
          <mxGeometry x="230" y="-430" width="520" height="50" as="geometry" />
        </mxCell>
        <mxCell id="QAXlqffc3XCzaR2EPbh7-10" value="Logo" style="rounded=0;whiteSpace=wrap;html=1;" parent="1" vertex="1">
          <mxGeometry x="110" y="-430" width="120" height="50" as="geometry" />
        </mxCell>
        <mxCell id="QAXlqffc3XCzaR2EPbh7-27" value="Return to top" style="rounded=0;whiteSpace=wrap;html=1;strokeColor=none;fillColor=#cce5ff;" parent="1" vertex="1">
          <mxGeometry x="110" y="-110" width="650" height="30" as="geometry" />
        </mxCell>
        <mxCell id="QAXlqffc3XCzaR2EPbh7-29" value="Copyright" style="rounded=0;whiteSpace=wrap;html=1;strokeColor=none;" parent="1" vertex="1">
          <mxGeometry x="110" y="-60" width="100" height="30" as="geometry" />
        </mxCell>
        <mxCell id="QAXlqffc3XCzaR2EPbh7-30" value="About" style="rounded=0;whiteSpace=wrap;html=1;strokeColor=none;" parent="1" vertex="1">
          <mxGeometry x="296" y="-60" width="100" height="30" as="geometry" />
        </mxCell>
        <mxCell id="QAXlqffc3XCzaR2EPbh7-31" value="Help" style="rounded=0;whiteSpace=wrap;html=1;strokeColor=none;" parent="1" vertex="1">
          <mxGeometry x="477" y="-60" width="100" height="30" as="geometry" />
        </mxCell>
        <mxCell id="QAXlqffc3XCzaR2EPbh7-32" value="Disclaimer" style="rounded=0;whiteSpace=wrap;html=1;strokeColor=none;" parent="1" vertex="1">
          <mxGeometry x="660" y="-60" width="100" height="30" as="geometry" />
        </mxCell>
        <mxCell id="QAXlqffc3XCzaR2EPbh7-33" value="Tip Top Shoe Company" style="rounded=0;whiteSpace=wrap;html=1;strokeColor=none;fontColor=#0000CC;fontSize=17;" parent="1" vertex="1">
          <mxGeometry x="338.5" y="-500" width="207.5" height="20" as="geometry" />
        </mxCell>
        <mxCell id="uIyrIMlD8DhGRG01jT4R-3" value="Contact Us" style="rounded=0;whiteSpace=wrap;html=1;strokeColor=none;fillColor=#ffff88;" parent="1" vertex="1">
          <mxGeometry x="396" y="-370" width="89" height="30" as="geometry" />
        </mxCell>
        <mxCell id="3acbmkzTHBbubA7ZH2kX-1" value="" style="shape=image;verticalLabelPosition=bottom;labelBackgroundColor=default;verticalAlign=top;aspect=fixed;imageAspect=0;image=data:image/png,iVBORw0KGgoAAAANSUhEUgAAAeUAAAIfCAYAAABO0cSAAAAYbmlDQ1BJQ0MgUHJvZmlsZQAAWIWVWQk4Vd27X/vM55jPMc/zTOZ5nud5JuGYjimOMZRIMpWoEKWSjJVKoRKRBqUMfSRJJEOlUFEZcreh/t/9vvvc+9z1PGvv337Xu95pTfvdGwCuTt/IyDAEIwDhETFUB1MDfjd3D37sNIAACtAAHiDpS46O1LezswJw+X3/72VpEOaGy3OZDVn/bv9fC9E/IJoMAOQFYz//aHI4jO8CgEojR1JjAMAYwXSh+JjIDRwMY2YqbCCMkzdw0BY+uoH9tnDFJo+TgyGMmwHA0fr6UoMAoO+E6fxx5CBYDv07uI0Y4U+JgFl/wFiHHOzrDwCXGswjHR6+ewPDFYjD/JEwzoWxmt/fZAb9N/l+f+T7+gb9wVt+bRacESU6Msx3z/8zNP93CQ+L/a1DFK60wVQzhw3/4RgOhe623MC0MJ6N8LOx3Yg1jH9Q/LfiDgCCEBxr5rzFj+AmRxvC8QOsMJbz9zWyhDE3jE0iwmystul+gRQTcxjDswWRQIkxd9rumxkQbey4LfMUdbeD7W8cSDXU3+572Ze6qXeDvzM21Fl/W/5QcID5b/nfEoOdXGFMAABJiKO42MCYHsbM0aGOlls8SMHEYEOb3zzUWIcN+4VhrBYQYWqwJR/pFUg1cdjmjwyP/u0vMiOYYm6zjYtjgp3MtuKDrCX7btrPDuPGgAh9599yAqLdrH774h9gZLzlO/JZQITztr/I0cgYA4ftvvORYXbb/ChcQJjpBl0QxpzRcY7bfVFaMfDk3JKPsoqMsXPashPlE+JrYbdlDyoOWAFDYAT4QSxc/cBuEAIoz2abZuGnrRYT4AuoIAgEAJltyu8erpstEfDVESSCTzAKANF/+hlstgaAOJi+9oe6dZUBgZutcZs9QsEUjMOBJQiDn2M3e0X80eYC3sEUyr+0k2Fbw+C60fZvmj5MsdqmxP6Wy8/wmxNjjDHCmGFMMBIoTpQOShNlBV/14KqAUkOp/7b2P/zoKXQf+i16AD2GfrmLkkb9hy3WYAyWb7Ltsd/fPUaJwjKVUQYobVg6LBnFiuIEMiglWI8+ShfWrAxTDbft3vCd/3/w848Hf4v5Nh9eDo/As+H18OL/7EkvSa/8R8pGRP8eny1b/f5E1fBPyz/1G/4tzv7w3fKfnMhMZAPyIbId2YVsQTYBfmQbshnZjbyzgf/MoXebc+i3NodNe0JhOZR/6fPd1rkRyWi5Orn3cqvbbSAmICFmY4EZ7o7cQ6UEBcfw68OnQAC/eQRZVppfQU5BEYCNM2Vrm/rqsHlWQKw9/6GRDwKgOg8Afvk/tPCvAFyB1zi/9X9oIt7wMsMAUD1FjqXGbdFQGxc0vBswwCuKA/ACISAOe6QAVIAm0APGwALYAifgDrzhOAfD85kK4kEySAUZIAccBSdACTgDzoNqcAlcA02gBbSDB+AJ6AUD4BU8fybBRzAPlsAKBEFYiA4iQRwQHyQCSUEKkBqkAxlDVpAD5A75QEFQBBQLJUMHoByoACqBzkE10FXoJtQOdUF90EtoHHoPfYGWEUgELYIZwYMQRexAqCH0EZYIJ8RORBAiCpGISEccQRQjyhEXEY2IdsQTxABiDPERsYgESBokK1IAKYNUQxoibZEeyEAkFbkPmY0sRJYjLyNvwSP9HDmGnEX+RGFQJBQ/Sgaew2YoZxQZFYXah8pFlaCqUY2oTtRz1DhqHvULTYfmRkuhNdDmaDd0EDoenYEuRFeib6Dvw6tpEr2EwWBYMWIYVXg1umNCMEmYXMxpTD3mLqYPM4FZxGKxHFgprDbWFuuLjcFmYE9iL2LbsP3YSewPHA2OD6eAM8F54CJwabhCXC2uFdePm8at4BnxIngNvC3eH78Hn4evwN/C9+An8SsEJoIYQZvgRAghpBKKCZcJ9wkjhK80NDSCNOo09jQUmv00xTRXaB7RjNP8pCXSStIa0nrRxtIeoa2ivUv7kvYrHR2dKJ0enQddDN0Ruhq6e3SjdD/oSfSy9Ob0/vQp9KX0jfT99J8Z8AwiDPoM3gyJDIUMDQw9DLOMeEZRRkNGX8Z9jKWMNxlfMC4ykZjkmWyZwplymWqZuphmiFiiKNGY6E9MJ54n3iNOkJAkIZIhiUw6QKog3SdNMmOYxZjNmUOYc5gvMT9jnmchsiixuLAksJSy3GEZY0WyirKas4ax5rFeYx1kXWbjYdNnC2DLYrvM1s/2nZ2LXY89gD2bvZ59gH2Zg5/DmCOUI5+jieM1J4pTktOeM56zjPM+5ywXM5cmF5krm+sa1zA3gluS24E7ifs8dzf3Ig8vjylPJM9Jnns8s7ysvHq8IbzHeVt53/OR+HT4KHzH+dr4PvCz8Ovzh/EX83fyzwtwC5gJxAqcE3gmsCIoJugsmCZYL/haiCCkJhQodFyoQ2hemE/YWjhZuE54WAQvoiYSLFIk8lDku6iYqKvoIdEm0RkxdjFzsUSxOrERcTpxXfEo8XLxvyQwEmoSoRKnJXolEZLKksGSpZI9UggpFSmK1GmpPmm0tLp0hHS59AsZWhl9mTiZOplxWVZZK9k02SbZzzuEd3jsyN/xcMcvOWW5MLkKuVfyRHkL+TT5W/JfFCQVyAqlCn8p0imaKKYoNisuKEkpBSiVKQ0pk5StlQ8pdyivqaiqUFUuq7xXFVb1UT2l+kKNWc1OLVftkTpa3UA9Rb1F/aeGikaMxjWNOU0ZzVDNWs0ZLTGtAK0KrQltQW1f7XPaYzr8Oj46Z3XGdAV0fXXLdd/qCen561XqTetL6IfoX9T/bCBnQDW4YfDdUMNwr+FdI6SRqVG20TNjorGzcYnxqImgSZBJncm8qbJpkuldM7SZpVm+2QtzHnOyeY35vIWqxV6LTktaS0fLEsu3VpJWVKtb1ghrC+tj1iM2IjYRNk22wNbc9pjtazsxuyi72/YYezv7UvspB3mHZIeHjiTHXY61jktOBk55Tq+cxZ1jnTtcGFy8XGpcvrsauRa4jrntcNvr9sSd053i3uyB9XDxqPRY9DT2POE56aXsleE1uFNsZ8LOLm9O7zDvO7sYdvnuavBB+7j61Pqs+tr6lvsu+pn7nfKbJxuSi8gf/fX8j/u/D9AOKAiYDtQOLAicCdIOOhb0Plg3uDB4lmJIKaEshJiFnAn5HmobWhW6HuYaVh+OC/cJvxlBjAiN6NzNuzthd1+kVGRG5FiURtSJqHmqJbUyGoreGd0cwwy/vHfHiscejB2P04krjfsR7xLfkMCUEJHQvUdyT9ae6USTxAtJqCRyUkeyQHJq8vhe/b3n9kH7/PZ1pAilpKdM7jfdX51KSA1NfZoml1aQ9u2A64Fb6Tzp+9MnDpoerMugz6BmvDikeehMJiqTkvksSzHrZNavbP/sxzlyOYU5q7nk3MeH5Q8XH14/EnjkWZ5KXtlRzNGIo4P5uvnVBUwFiQUTx6yPNR7nP559/NuJXSe6CpUKzxQRimKLxoqtiptPCp88enK1JLhkoNSgtP4U96msU99P+5/uL9Mru3yG50zOmeWzlLND50zPNZaLlheex5yPOz9V4VLx8ILahZpKzsqcyrWqiKqxaofqzhrVmppa7tq8OkRdbN37i14Xey8ZXWq+LHP5XD1rfc4VcCX2yoerPlcHr1le62hQa7h8XeT6qRukG9mNUOOexvmm4KaxZvfmvpsWNztuad66cVv2dlWLQEvpHZY7ea2E1vTW9bbEtsW7kXdn24PaJzp2dby653bvr077zmf3Le8/emDy4N5D/Ydtj7QftXRpdN18rPa46YnKk8Zu5e4bT5Wf3nim8qyxR7WnuVe991afVl9rv25/+3Oj5w/+Mv/ryYDNQN+g8+DQC68XY0P+QzMvw14uDMcNr7zaP4IeyX7N+LpwlHu0/I3Em/oxlbE740bj3W8d376aIE98fBf9bnUyfYpuqnCab7pmRmGm5b3J+94Pnh8mP0Z+XJnN+MT06dRn8c/X5/Tmuufd5icXqAvrX3K/cnyt+qb0rWPRbnF0KXxp5Xv2D44f1T/Vfj5cdl2eXolfxa4Wr0ms3fpl+WtkPXx9PdKX6rv5KoCEKyIwEIAvVQDQuQNA6oXTBM+tnG+7IOGXDwR8d4FkoY+IdPhE7UFloE0wSMwTbDEuAm9FkKDB0szS9tM10VcxVDLWMzUTO0hPmHtZhljfsM2wf+RY4FzmWuNB8GL5CPx0AkRBohCrMLsImyi7GLc4jwS/JL+UoLSwjKis2A5pOTl5RQUVRQ0lXWVjFXNVczUTdRMNE01DLX1tLR0NXSU9WX1RAx5DZiOC0brxV5Mp05dm3eYtFtWWx6xSrENs3GyN7ZTtxRy4HBmdcM5IF8gV4YZyx3swenJ4Ce+U8ZbYJezD58vpx0Im+RMDSIGsQVzBghTpENVQkzCXcEpE8u6CyIqos9Ti6PyY3NisuOz4IwnFe6oTW5Ne7QX7pFN27T+Z+uqAYPrug+2HMJlCWQrZBjmOuYGHE4/k51UfvZs/XLB4nOmETKFFUWDxgZNlJTdL+0+9O714BnuW45xkudZ52wq/CzGVB6sKq6trbtY+rhu++OHSz3rcFbar4td0G9yvR93IajzdVN/cdrPrVs/t3pYndzpar7aV3k1p39WhcY94b6rz5v3aB6ce5jxK6PJ7bP5Etpu+e/bp/WeneiJ7DfpIfRP9156n/mU/IDKIGnz/onuo/mXBcMwrlxG115yvV0dH37SPXRjPert7wvmd1qQwPMuWpv+auf6+6EPKx7BZ8ify58i5nPkbC3Nf9b6dWyJ9L/4ptfxsNeWXxvr638ZfATmDKkBbYlgwr7ENuFx8EMGIRpKWgXaVbpp+iGGI8Q3TO+In0lfmJZY11hW2NfZfHGucS1xfued4pnhH+Pr57wvcFKwUyhEOE7ESlRTDi30Q75KokcyWokhbysjI0snO7eiTuy5fpJCsSFayVzZQUVAVUCOqrat/1hjR7NJq1C7XydWN1/PRtzBQMOQ0Qhi9N35mcsU03yza3MlCxZLNcsXqjfU9m1rbfLsk+0AHR0d9J3lnAReSK9Z12e2j+4hHt+cdr/qdZ72P7Trkk+xL9aOQff09ApwC7YNsgi0pliFmoZphsuECESy7aSIRkatRP6g/o9di0XHEeKEEjT1OidFJhckte6dSaPbzpcqkaR+wSfc7GJ9x+FBlZlvWcPb3XObDCkfs8yKOHs6vK3h07N3x9ULOIuViu5OhJQdLz5xqPt1bNnPm1znmconz2hV2F8iVsVWHqovhfa67bu4S8bJiveOVqKt51+oaOq+P3PjShGnmuCl5S+O2RYvbncDWmLaUu6ntBzoO3svoPHQ/80H2w9xHh7sOPz785HB37tOcZ1k9h3rT+1L79z6P+ytqYPdg5IuYoaSXB4ePvSofaXj9YPTlm0/j4C1xQvCd/KTOlPm038zZ958+Ks8mfWr9/GtecyHuy+Wv7xbZlyy/p/xo+Dm9wr3qsJb9q3N7/I0R+sgdyM+odvQhjCNWHLuAu4nPIDjQcNOM0p6nC6dXZ0AwtDOmM1kQGYi9pKPMtiwMLE9Zs9lM2CH2Zo4ITiHOIa4cbh3uTzylvGa83/jK+M34PwscF9QQHBHaK8wv3CriLbIqWiymJNYtHiC+KnFMUkqyTcpRako6VUZEZkg2d4fBjm9yVfKeCnQKbYqRSgJK/cppKgoq46p5atpqn9RLNcw1FjXPa9lr/dKu03HXxere0CPrE/XvGkQa8hv2GqUZKxlPm5SY2sLvHbfNoyykLN5Zlll5WLNaP7cpsHWwI9kN2p908HYUdvzgdNU50cXYlcF12K3SPdrDwJPWc9DrzM5gbwXvlV33ffJ9vfwk/JbInf7HAnwDFYNQQYPBtZSUEKdQ6TB02JvwWxHFu+MjXaM0qLzRqOjZmIHY9rj6+LKEvD2pifFJocn+e3fuc0tx2u+Qap9mf8Ah3emge8bOQwGZoVnR2Sk5mbkFh8uO1OQ1Hr2X31cweuzzCVShRJFX8dGT90tWTsme9is7cebx2dVyhfMBFSUXeqpQ1Vo18bX1dR8vSV4Oqa+9MndNpWH/9e5Gjqaw5s5bfLdTWt62WrW1tMt3XOyUun/1ocGj4ccJ3XxPe3sO9zk9Fx0Agx+H3g1/eA3eiIzvmqidQs8kfgSfKubJX3WX1H46rxZvjP/Wt7+NglEB4MQhADa+5zjUAJB7EQCxPQCwwbmnHR0ATuoAIWAKoMUOAFlo/zk/Nr6OEgBp4/soUANmcH4ZBueURaAedIEJsAaxQ8qQIxQNnYCaoddwzieNcEGkIuoRo0gGpAEyHnkJOQVnaV6oUtQrOBPzQV9Af8KoYFIxz7A82HBsG46Eo+Da8Zz4WHw/QZFQRFilIdM8pVWnraZjp8ulR9An0X9niGVYYkxkgpiyiazECpIaqZc5hAXLcoHVmHWKLZNdir2XI4aTg7OVy5+bhvsajwcvkvcSnyecEfQJ5AnaCjEJPRcuEvEUFRCdErsoHi2hIQlJdknlS3vCs3Netn9Hi1ylfIHCPkWKkqOyhgqfKqQ6ptaiflwjRFNbi15rRLtGJ0ZXVw+n16ffYHDdsMnolnGryT3TLrMe80GLUctpqwXrFVucHau9qIOao5UT2TnZpdi11W3Gg+Sp7xW5s9x7wIfgq++XRG72/x6oFpQU3B5CCHUOqwhf3G0WWRY1F60VkxM7Gq+UcHTPQpJr8oN92imtqZZpE+lZGdqZIKsv58rhU3kF+WbHkMfvF+YXB5QYnpIuEzwrUq5UYVMZVV1a++QSqFe9atPgfiO4KfnmidvX7vS3LXXwdpo9iHl09vGz7rUemb6dz48M3B0iDZNHLo3OjnNPqE3qTcu/p//wYvbI5x1z7QtmXzq/KSyWLC3/sP95YXlhVWMt5dfdzf1ja/yJ8PhLAFVgAlxBCNgHjoM60AlGwQ+IBMlBNlAEdBRqgF4iAEICzvLTEFcRb+E83gqZjmxDrqC0UQdQ3Wh2dCC6EYPHeGMasYzYMOwTnDQuD7eI98I/IMgSimiQNFE047TOtI/pDOla6bXo78BZ7CNGe8ZROE9dJx4nyZKeMkfAmWczqy8bDVszeyAHK8dDzj1c0lzj3EU8trw43g6+/fwGAhiBp4KFQr7CssKrIt2iZWJR4sYSXBJfJB9LnZdOkfGU1dwhIccuj5dfVZhTnFB6ofxY5bbqRbUS9UMaVE1PLUNtSR1GnUXdYb1W/XqDq4YNRk3Gt03aTDvNHpv3WrywfGM1bb1gs2KHs2d1EHNUd7J29nfZ61ridtN92GPNS3CnhXfMrrM+PX4QWcU/IqAmcCpYlBIScjV0Odw0onD3TJQWdW90Wywqziq+KGEqUT3pSPL0PuOU6lT6tD0HpuH9pDfTIuthjllu9xGHvLH8lGO8x+8WBhbTn2wu9T9NKntwdm+5yvkvF65WxdZo1WEuDly+cCX5mtd1lUb6pomb128fuGPTxn53vKOmk/pA6xG2a/BJzdP9PV59Os9FBpgGHw05v5x8lfiaefTamNP46kT1pPs0w0zXh8xZy8+Mcy8Wzn4NWVT5jvjRs1y6GvRLcXv8kQADaDd3AHGgAs8ANxAODoIz4DYYhte/IGQBxUIV0CCCBmEEr/wOJA5pjzyD/IKyQFWh8Wgq+g3GCV7tNtgBHBn3E19IUCdM0pyk1aMdoUui56fvYohnlGScYDpD9CNJkL4zP2QpY01i82TX45DiZOei4UZwr/Is867yAwEs/AbKIywroi3qIBYkvl/ipOQNOO+el2XcoSDnKr9PoUKxR2lFRULVXa1AvV+TWctdu0JnTk9b/7DBGyNF4xyTcTMt80KLL1Z21pdsae3C7B87SjrlOH9wtXCr9cB7UrweeovuOugz6WdIrgxABvoH3aOIhmSEzoRbRdRHskQlUMdijGIvx7Mn7NvzMckNXqcqKVWpHGlH0lEHkzO+ZHpkXc1ez3U6XHVk+ahj/uVjhOOUEw+KpIpzT86Vup66UyZ6Jh/e+/3Pd1/QrKyqZqpJrJ266HippV70St7VpQbv6w8aZZqONs/fsr99+Q6hNbCttZ3YEXCv8T7qgd3D0kcTjyWeULorn473cPba9x3sv/787QBhUO6FwxD15ZHhmlf3RgZeT40uvFkdh95iJzDvMJNgcnnq0/TozNP3zR/KP2bORnyy/iw1h517M9+8kPXF46vE1y/fWhbTloy+Y753/kj5qflzYfnCiscqYbVxjfyL7te1dfeN8Y8OVFTYPD4gWgMA0KPr619FAcAWALCWv76+Ur6+vnYeTjZGALgbtvU/afOsYQTgLNcG6ruy+K9/OVv/mv6Wx/zzDjZPok2t8Em0eYdPJfBf29Deq/TDQLMAAABiZVhJZk1NACoAAAAIAAIBEgADAAAAAQABAACHaQAEAAAAAQAAACYAAAAAAAOShgAHAAAAEgAAAFCgAgAEAAAAAQAAAeWgAwAEAAAAAQAAAh8AAAAAQVNDSUkAAABTY3JlZW5zaG90GiJrmAAAAj5pVFh0WE1MOmNvbS5hZG9iZS54bXAAAAAAADx4OnhtcG1ldGEgeG1sbnM6eD0iYWRvYmU6bnM6bWV0YS8iIHg6eG1wdGs9IlhNUCBDb3JlIDUuNC4wIj4KICAgPHJkZjpSREYgeG1sbnM6cmRmPSJodHRwOi8vd3d3LnczLm9yZy8xOTk5LzAyLzIyLXJkZi1zeW50YXgtbnMjIj4KICAgICAgPHJkZjpEZXNjcmlwdGlvbiByZGY6YWJvdXQ9IiIKICAgICAgICAgICAgeG1sbnM6ZXhpZj0iaHR0cDovL25zLmFkb2JlLmNvbS9leGlmLzEuMC8iCiAgICAgICAgICAgIHhtbG5zOnRpZmY9Imh0dHA6Ly9ucy5hZG9iZS5jb20vdGlmZi8xLjAvIj4KICAgICAgICAgPGV4aWY6VXNlckNvbW1lbnQ+U2NyZWVuc2hvdDwvZXhpZjpVc2VyQ29tbWVudD4KICAgICAgICAgPGV4aWY6UGl4ZWxYRGltZW5zaW9uPjE0NDA8L2V4aWY6UGl4ZWxYRGltZW5zaW9uPgogICAgICAgICA8ZXhpZjpQaXhlbFlEaW1lbnNpb24+OTAwPC9leGlmOlBpeGVsWURpbWVuc2lvbj4KICAgICAgICAgPHRpZmY6T3JpZW50YXRpb24+MTwvdGlmZjpPcmllbnRhdGlvbj4KICAgICAgPC9yZGY6RGVzY3JpcHRpb24+CiAgIDwvcmRmOlJERj4KPC94OnhtcG1ldGE+CjCm1LEAAEAASURBVHgB7d0HfFvV2cfxR7LsJLaz996EBBIg7Fn2CiNAC3TRFsoqlAIlZbS8zLZQ9igr7FL23mXvDSEBEhKyQ5y9421J73mucxXJkRM7kqx77v2d92MsXV1dnfN98vbvu45Ca5bPiwsNAQQQQAABBPIuEMl1D1auXiNrKyqkpqZW4nHyP9febB8BBBBAIH8CoVBIiooKpbS4WDq0a9vsjoRytadcW1sni5Yuk1at2kjnLl2lbdtOEgoXNLuDvAEBBBBAAAFbBOKxqKxZs1yWLV0i1dWV0qlDeylu07rJ3c9ZKP+4cJF06NBJunTuLrXV5RKtqzGdYk+5yZVhRQQQQAABCwVCUhApksJWJTJn7kypra2WPj26N3kcOQnlFavWSF00Lr169jKBvLbJnWFFBBBAAAEE/CJQ2KpUyhaUSaQgJB3bN+1QdjgXgy+vrJCOHTsRyLnAZZsIIIAAAlYI6E6pZqFmYlNbTkJZL+oqiuRk000dF+shgAACCCCQdwHNQs3EpracJKdeZR2LNr0TTe0s6yGAAAIIIGCTgGZhc+48ykko14NxUZdN/3DoKwIIIIBALgSal4U5DOVcDI5tIoAAAggg4F8BQtm/tWVkCCCAAAKWCRDKlhWM7iKAAAII+FeAUPZvbRkZAggggIBlAoSyZQWjuwgggAAC/hUglP1bW0aGAAIIIGCZAKFsWcHoLgIIIICAfwUIZf/WlpEhgAACCFgmQChbVjC6iwACCCDgXwFC2b+1ZWQIIIAAApYJEMqWFYzuIoAAAgj4V4BQ9m9tGRkCCCCAgGUChLJlBaO7CCCAAAL+FSCU/VtbRoYAAgggYJkAoWxZweguAggggIB/BQhl/9aWkSGAAAIIWCZAKFtWMLqLAAIIIOBfAULZv7VlZAgggAAClgkQypYVjO4igAACCPhXgFD2b20ZGQIIIICAZQIRy/pLdxHIicDq1Wtk+ozZMvfHMpk7b74sX75SevboJv379Za+fXvL8GFDJBzmb9jm4s+aPVfefPuDxNt+evRh0qF9u8Tz5AfLV6yUp599ObFozCH7OzVILOABAgEQIJQDUGSG2LhAPB6Xt979SJ59/lWJxWIpKy5ZukwmfTvFWda1S2c55aRfSq+e3VPWackn3373vawtr5BBA/tJt65dWvKjE5+1cuUq+X7aDCkqLJTR241MLG/swZKly2XCxO8SL2vQNhbK5WZsyeuO3nYkoZyQ40FQBAjloFSacW4gsHLVarn19vtkwcLFG7zWcIEG9N+vvlnOPvP3MnTIwIYv5/z5UhNut4//j/M5PzN7m/kK5cefflEmTposhYWRJoVyzmH4AAR8JkAo+6ygDKfpAuPvfXiDQN7e7P0NGthfunbtLKtMaH9t9vK+mzLN2Wjnzh1loNlLzUfTQ+peaHPmeqMfXrCgDwjkQoBQzoUq2/S8wEeffCGz58xL9LN9u7Zy+iknSN8+vRLL9MFuu+wgP85fILr+vj/ZXSIFBSmvt9STOR4I5bpoVPTwNQ0BBHInQCjnzpYte1RAw+WRx59L6d05Z50set44XevTu6cce8zh6V4SPQT++RdfOxeI6SFmPV/at28v2XbUVhucf9Zz1o8+8bzU1dXJjttvI1uai8e++GqS8/4VJuw6deroXFD2kz13kVAo5HzeosVLZeasOfLVhG8Sn//1pO9kzdpy53nfPj2dz3Jf1LE5/TEhPndemVRXV4v2f6cdtpURw7dwV0v5XVVVLZ9/OVHmzP3R+QOkbdtS6Wcubtt21AjnjxTt71RzHnnqDzMT74tGY/LCy28knu+79+5SUtwm8TwXDxYtWiLvffipc3SjoqLSGdeA/n1ll51H5+2PpVyMk20GW4BQDnb9Azn6BQsWpVzUtc9Pdms0kDcG9N4Hn8oT5hxr8gViephZLw576ZU35cD99pLDxxyQuGq7pqZWPvz4c2eTGoK6V65B6LYy0y+9mOuTz76Sv5x7uvM+3f6U739wV3F+/zB9luiPtq232jIRytNMaN7/n8dllbmSPLnpOXP9PA37hn9c6BXnd5hz1ZVVVclvkcnmkP2rr70t+++7p/MHxG13PZjyuo5ZX3fbzjtum9NQfvOdD1OuzNbPnWeulP/40y/l5VfflDNO/Y30Nn980BCwXYB7PGyvIP1vtoD+j3ly23abrZKfNunxZ2bv+LEnn08J5LalJSnvfe3N9+SFl15PWeY+0VBzA7nhrVbav3ff/8RZtZe5LUsvqkpuur4u05/idXunGvi3mIvWkgO5Vaui5Lc520ze2128ZKnccMv4lEBu07q1lJQUJ9734UefS2uzTJc37KfbB/0dDuXuf0r0j4rkW6X08/r365Nw0TGHuF0tUTMe2C2Q+v/tdo+F3iPQJIGGodyzR/Nuc9LDvQ8/9kzis3QP7U9/ONEJMz3Ue8/9jyZupdJg3m3XHdLuiXfo0F5ONbdZ6aHihebQ7M3/vicRqh+bvWXdgz967KHOz0X/d1XitWPMsr332jXx+fqgqKjQ2Qt+4eXXZdTWw+WwQ+tvPdKrxm+4eXzive++97EMGzrIee/Djz2b2IYG3VlmDHqRm7YZM+fIO+9/7JxH72IucLv2qoudvW3dE9em6994zWXO41z/57vJUxMfoef+/37Z+c7hff3DZuI3eiV44QanChJv4AEClgnk7s9byyDobnAE9H7Y5Na6wR5l8mvpHuuh3drausRLp/zuF4m9y0gkIr/99bEpe5VffDkpsW7yAzeQdVmP7l1l5x23S7y81IRpc9ueu+8k//r7X+VXPz86cS+wniffwZy/dpseItdWbs7JuofA9fmRhx2UCGR9PnhQfznpN8fLwAF99WleW5U5L+42fVxWttB5qnvu222ztWw9Ypj7Mr8RsF6AULa+hAyguQINJwBZvKR5ATh/XSjo5+rebpcunVK6oIeNhwwekFg2v2xB4nHyA/diLnfZgKQATA599/Xm/l6zZq3Mmj1PoubiL7dVVFY6DxctSr03Ozm43XVz8Vsna2luG7xu713fV11dI/+45la58qqb5HVzFEInU6Eh4CcBDl/7qZqMpUkCvXr2SFlPL87SKTWb2hYkBZoeTk3XNKzdpoemm9JCUn/FdVPWbWwdvUpbr1BO3gtOt65e1Z3cGp4PT34tk8cNt7vCTKXZ8I8id/s6zWZy06vAtQ3fcqgzUUnyFeh6nvnZF/7n/OhkKg0P5ydvh8cI2CTAnrJN1aKvWRHo3Ss1lJ83F2MlX0G9qQ9JDuLKytSrlt33ViUtd8PFfS0Xv3UPVM/33vPAoymBrHvtev63YWu3LvDc5boHmoumt2Mlt41NPtLwteQ66aF0neZ04IANJ2/RK9Q39UdIch94jICXBQhlL1eHvuVEQGfmGjJoQGLbOiGGBnNjTc+/6gVFbnAnh8XSZctTzi+729AvtnBb8vrusmz/1luD9LYnbXquVW990vPL1199iXOOu+Hn9Wrwh0nyRCoN183kuf5BkvxHwWtvvit6oVzDpsZ6ONpt+seEe2W5u2ybkSPkvLNPlWv+8Tc58vCDUs7bf7NujnJ3XX4jYKsAoWxr5eh3RgK//sUxKe/XQLjx1rtFL4Ryz3vqudivvv5WLrn8Wrnrnv/K3fc/4rw2OCnQNajffPv9lG3p5B7JM19tMWRQyuuZPtFzxQ2bXnzmNp2YRO9Jdm9tWma+8aph62gOryffMvWM+UIOnXjEbXpOW4Ner95O1/T15PXTreMuO2DfvdyHzh8wl//jBmfPVn11GzoxyRVmmftHj6580AF7J96jD3SSFvd1DWu9Bzz5PDi3RKVw8cRigQ2Pa1k8GLqOQFMF9OKsQw/aV17+31uJt+ghUP3SCW0aWA0P6X7z7fei52L1/PMuO412JvnQdXVmq5mz5jpf8bjM7Dm7e6z6mt5PO2rkcH2YUdNz1O49yG++84HoDGDfT52emBq0pGT9PdL6R8HIrbd0rsD+9PMJ8v6Hn6X9bD0X+9AjTzuv6W1iV/7zJtnJTAKis3W9b85L61Xq6nD5/42TUnPvcseO68+T65tu+fe9Ei4Iix7O1yvOG2uHHLSPfGQC3v1DRcehfwA11vRIxgFm0hK3fWlmPbv3wcece6UPOXhfGWBM9R7rCV+vn+Us+cI69338RsBGAULZxqrR56wIjDlkPydgH3z4yQ0OQTcMZA2es844ybl1ST/8p0eNkVlm7myd+lGbfmmF+8UVzgLzH91T/d0JjYeVu15TfusEJ+5kI7qXqmGr7d4HHpNL/nqOcyHUBx/Vh6/2/e77HklsVg9nu3uZiYXmwa47by9fmgvD3BnDdK9YZyJLbiXFxYmn/cwMZMl/rEyfOTvx2g6jRzmziyUWJD3Qzz/7zJPkzrsf2uALQJJWcx7qPd96q5i+x22vrJs5TGcdS55ExH1dT0WMNDOb0RDwg0DBReefe2m2B7LCHGrqlHT1aba3z/YQyJZAT/P9yLuaL53QuZRrzcQfeuGWe/haz4XqxB56mPRkcy9y8vcA62t77bGzRMzvheZK4OQQ1zDezQTeH8zUj8kXVNXVReW1N95NdH2P3XZy9jLdBboX/uWE+nua9XYp3ZN3m94vrHNru/cZ63KdZeuwQ/dzpuvUCT40QHXv2e2/rrOFmSjkzNN/a77xao2ZoGSxM8nIAebQr9t0Tmx9nwZ+bW2tu9gJX53PWi+wKm7T2lleYL6MQw/d61c36iQpbtOpPjXg26xbz12e/Fs/Y8/dd3a2q3v5yc4awHqf9iEH7uPcY93wXPL2o7eRmpoaM/aFKX9caA30MPbPjxsr2jcaAl4VaE4mhtYsn9f8Gwc3MfIZZg9isJkonoaAbQIaaLrH2KpVq5TA3NQ4NKSWLlshDc/Vbup9zX1dw2nFilVSYqb01EPKDZvuES8355D1D4xOHTs4Idhwncae6wVYeluS/lGRfIV5uvV1vZg5zN2pU4eUvdp066Zbps7aT70LrLP5Io6mNj0ErofVO5ix5foLMJraJ9ZDYFMCzclEQnlTmryOAAIIIIBABgLNCeX1J24y+EDeigACCCCAAAKZCxDKmRuyBQQQQAABBLIiQChnhZGNIIAAAgggkLkAoZy5IVtAAAEEEEAgKwKEclYY2QgCCCCAAAKZCxDKmRuyBQQQQAABBLIiQChnhZGNIIAAAgggkLkAoZy5IVtAAAEEEEAgKwKEclYY2QgCCCCAAAKZCxDKmRuyBQQQQAABBLIiQChnhZGNIIAAAgggkLkAoZy5IVtAAAEEEEAgKwKEclYY2QgCCCCAAAKZCxDKmRuyBQQQQAABBLIiQChnhZGNIIAAAgggkLkAoZy5IVtAAAEEEEAgKwKEclYY2QgCCCCAAAKZCxDKmRuyBQQQQAABBLIiQChnhZGNIIAAAgggkLkAoZy5IVtAAAEEEEAgKwKEclYY2QgCCCCAAAKZCxDKmRuyBQQQQAABBLIiQChnhZGNIIAAAgggkLkAoZy5IVtAAAEEEEAgKwKEclYY2QgCCCCAAAKZCxDKmRuyBQQQQAABBLIiQChnhZGNIIAAAgggkLkAoZy5IVtAAAEEEEAgKwKEclYY2QgCCCCAAAKZCxDKmRuyBQQQQAABBLIiQChnhZGNIIAAAgggkLkAoZy5IVtAAAEEEEAgKwKEclYY2QgCCCCAAAKZCxDKmRuyBQQQQAABBLIiQChnhZGNIIAAAgggkLkAoZy5IVtAAAEEEEAgKwKEclYYs7OR8MzZEv5+WnY2xlYQQAABBKwT8HUoV1VVy5ixv5Rzxl0sNTW1KcUpW7DIee3fd9ybsjwfT0Kr10jRzbdL5MVXJPL401J49wMSWrwkH13hMxFAAAEE8ijg61COx+MO7bQfZsoDDz2WwhyLRp3ndXX1v1NebOkndXUSnvStFF36Dym68d8See1NEbOMhgACCCAQLAFfh3JyKZ99/hX54quJyYsafRyLxRp9LScvRCISLy5ObDpeUiJSVJR4zgMEEEAAgWAIRIIxzPpRXnXNzXLXbddJp44dNhh2dXWNPPzY0/LBh5/KwkWLZasRw+Scs06Vnj26y+IlS2XcBZfJwQfuIxMmfivfTZ4qY484RA45cF+54ZY75fup02WLoYPk7D+eKv379XG2rcvufeBhZ93evXrK8ceOlX333mODz3UWVFeLmL36mvPOktCq1SJmL15/x7t0Tr8+SxFAAAEEfCkQiD3lbUZtJfvvu5dUVlbJDTffafKv/rB2ckWfeOp5efLpF6Rdu1IZPHiAE6bX33SHs4oe4l66bLk89MhTUmUCtEvnTqJ73mebc9Vr1pRLv769RQ+R32gCWtvcefPlz+df4mxDP7eoqFCuu/F2+XrSd87rDf8T79pFqm+5VmI7jJao+am+9h8SGzyw4Wo8RwABBBDwuUBg9pRPO/k38u1338tXEybJM8+9LDvtsF1KaY8eO0Z22H5b2XLYEGf5b076o0yeMs0JcndF3Ru+7urLZMnSZXLiKWc7r10//jJp06a1HPerU5xg1gvKnnnuJectF447S/bYfWdZu7bcef3Nt96Tbc0fCI21ugP3a+wlliOAAAIIBEAgMKGswXnR+X+Ss879q9xz/8Nmj7htSnmLi9vIwAH95Kuvv5EFCxdJxJzn1aaB6rb27dtLOByW7t26Oot0m6Wl5vyvaXrYWg9ZV1VVyQ/TZznLxt/7kDz43yecx/qfH+eXJR7zAAEEEEAAgYYCgQllHfjgQQPktJNPkDvGP+gcxk7GmGgOLV/xz+udvd8O7dtJdU1N8stpH7dq5GKscEH9WYGDDthH2rdfH/5dOnOOOC0kCxFAAAEEHIFAhbKO+LBDD5QvJ3wjn38xIeWfwL+uu9V5fvst/3LOEWtAf/LplynrNPVJ/759ZMaM2dK9e1fZb589nbfVmYu3CsxeNg0BBBBAAIHGBAKXEqFQyFxVfYro3nBy0z1jvRCsrGyhvPDS/zY7kHWbhx16gLPp2++6X+6577/yyOPPyPHmnLNe3U1DAAEEEECgMYHAhbJCtG/XTi4wF2FpC4dDzu/f/vp457fuIb/86ptyxGEHOc/FvOyuEzaB3pQ2bIshzvnrEnPv8dPmorKHHn5SBg3sL7vtsmNT3s46CCCAAAIBFQitWT5vw/uDMsSYMWeeDO7fN8OttPzb9crp6ppqaVtamrUPL6+okEhBRFq1YjKQrKGyIQQQQMAigeZkYuDOKW+sjno/sf5ks+neMg0BBBBAAIGmCATy8HVTYFgHAQQQQACBlhYglFtanM9DAAEEEECgEQFCuREYFiOAAAIIINDSAoRyS4vzeQgggAACCDQiQCg3AsNiBBBAAAEEWlqAUG5pcT4PAQQQQACBRgQI5UZgWIwAAggggEBLCxDKLS3O5yGAAAIIINCIgO8mDylbuFR+mDFPamrrGhkyixFAAAEEgiRQVBiRoYP7Sq8eXTw/bN+FsgZyv95dzLSWhWZ6ywLn+4/1Syic1rSpqz1fNDqIAAIIINCIwLqJo+PxuMRiMdFv6KuurnV21gjlRsxyuVj3kDWQ9buOI5GIFJjvNq4PZZPIhHIu6dk2AgggkH8BJ5TjoqEcjcakoK7+qKktR099t6es/yJ0D1kDubCw0IRygYTMN0GRx/n//xV6gAACCLSEgOZyPBY3R0qjzsdFzd6yLc2XoRwOh50w1kDWPWV9TkMAAQQQCI5ALBRzBquHsG3KAF+Gsh6udn7MHrIWI3FOOTj/HhkpAgggEGgB/d/+mDmE7eaBLRi+DGX3WHXyIWuC2ZZ/kvQTAQQQyExAzydrS2RA4kFm222Jd/v3uK5FRWiJQvMZCCCAQCAFLMsC/4ZyIP/1MWgEEEAAAZsFCGWbq0ffEUAAAQR8JUAo+6qcDAYBBBBAwGYBQtnm6tF3BBBAAAFfCRDKviong0EAAQQQsFmAULa5evQdAQQQQMBXAoSyr8rJYBBAAAEEbBYglG2uHn1HAAEEEPCVAKHsq3IyGAQQQAABmwUIZZurR98RQAABBHwlQCj7qpwMBgEEEEDAZgH/hnL9fOQ214a+I4AAAghkKmBZFvjzW6LWFSG5Fu63hmRaX96PAAIIIGCHQCIDEg+8329fhrIGsPMTi4t+0bVNX3Dt/X8y9BABBBDwvkAsFpO4yQA3D7zf4/oe+jKUtRjRaDQRxs4XXdtSEfqJAAIIIJCRgO4YayBrDuiPZoItzZehXGeKUFBX59QgFotKKKRfqGl+LPteTVv+EdFPBBBAwDMCzqHq+j3kaDQmdSYLNBNsab4L5aLCiFRX1zr+7t5yfSibRYSyLf8u6ScCCCCweQLrzh/rYWvdQ9ZA1kzQbLCh2dHLZkgOHz5MpkyZKjW19XvKzXgrqyKAAAII+FBAA1mzwYbmu1Du3bOrDBw0xByy9u/dXjb8w6KPCCCAgFcE4vGY1FSuktrqcq90qdF++C6UFd0G+EYrwgsIIIAAAoEVYHcysKVn4AgggAACXhMglL1WEfqDAAIIIBBYAUI5sKVn4AgggAACXhMglL1WEfqDAAIIIBBYAUI5sKVn4AgggAACXhMglL1WEfqDAAIIIBBYAUI5sKVn4AgggAACXhMglL1WEfqDAAIIIBBYAUI5sKVn4AgggAACXhMglL1WEfqDAAIIIBBYAUI5sKVn4AgggAACXhMglL1WEfqDAAIIIBBYAUI5sKVn4AgggAACXhMglL1WEfqDAAIIIBBYAUI5sKVn4AgggAACXhMglHNckcrKKlm+fIXzKfF4XObM/VHKyhZu8lMjr7wuEo1ucj1WQAABBBDwj0DEP0PZcCRVVdVyzPEnbviCWXLyib+SsUcckva1bC3UEP79aefIylWr5YZrrpD+/frIH846X/r17S233/KvtB8TeeYFiffvK61OPUtizz0m4anTpO74n6Zdl4UIIIAAAv4S8HUoayi6bb9993QfOr979+qR8jwXT0KhkHTs2MEJ5datWzXtIyIRaT325xJau1baHHmc1Pzz0qa9j7UQQAABBKwX8HUoJ1fn3LNOS36ak8exWEzC4dQzAtf/63KprqmWtqWlUl1ds8nPjRe3SVkn3rY05TlPEEAAAQT8KxCYUG5qCRcvWSrjLrhMDj5wH5kw8Vv5bvJU5zD3IQfuKzfccqd8P3W6bDF0kJz9x1Odw9G6N/76m+/K8y/+T2bNnis9uneTM04/UUZvO9L5yGtvuE2mTpsut970TykqLNpkN8LfT5PqW66RVn8cJ9W33yjhiZNEjhizyfexAgIIIICA/QKpu3X2j6fREbz97gfi/syYObvR9erqorJ02XJ56JGnpKq6Wrp07iTPPv+KnD3uYlmzptw5Hzzth5lyowlobRMnfSc33Tpe9IKu0duNkoWLFsvFl15l1l3rvL5i5Upne7oX3ZRWe8YpUnfkYRLdfx+pO2g/qbloXFPexjoIIIAAAj4QCMye8rU33J4o1y+PP0YGDxogZQsWmb3hbxLLR209XAoK6kl0b/i6qy+TJUuXyYmnnO2E7vXjL5M2bVrLcb86RTSYa2pqZZtRW8lVV/5Nhm85VCLmfLAG9GtvvGNenyHbj94mse3mPqi697bmvoX1EUAAAQQsFwhMKF847qxEqfr06eU8nj59ptx2x32J5eecdaqMGD7Med6+fXvn/HD3bl2d5xrGpaUlzmO9iloPY1dVVUlRUVvZasQw5xD1fHOrk3v709ry8sR2eYAAAggggEBTBAITynvsvvMGHlubPeMrLr0gsVxvVdK933StVVH688HLlq2QCy/+u8wvW+DsRTe2XrptsgwBBBBAAIFkgcCEcvKg3cedzO1K+pPc9JB2c9pDjzzhBPL5fz5T9txjF+eCr7vu+U9zNsG6CCCAAAIIOAKBCeWrr7tVwua+YbftteeusvOOo92nm/27wlzgpW2xOff84UefydPPvrTZ2+KNCCCAAALBFghMKL/3/scplR4yeGDKc/dJOFwf3MkB7r6W7veRhx0sX341Ue574BHn8PUxY8c4V26HZP0fAPq+cCgs7t8EBQUF6TbFMgQQQACBgAuE1iyft37aqyxhzJgzTwabqSKD0vR2p7Vry50LwRpOHhIUA8aJAAIIIJBeoDmZGJg95fRU2VmqQdyuXdvsbIytIIAAAggEViAwk4cEtsIMHAEEEEDAGgFC2ZpS0VEEEEAAAb8LEMp+rzDjQwABBBCwRoBQtqZUdBQBBBBAwO8ChLLfK8z4EEAAAQSsESCUrSkVHUUAAQQQ8LsAoez3CjM+BBBAAAFrBAhla0pFRxFAAAEE/C7gu8lDyhYulR9mzJOa2jq/147xIYAAAgg0QaCoMCJDB/eVXj26NGHt/K7iu1DWQO7Xu4u0alUoETPHtM62FXInnU6djjq/8nw6AggggECKQHzRXIl//ZbEpk8QWTBTZOXi+tc7dBPpOUjCQ7aT0Lb7Sqh7v5T3pTxZN3F0PB4XnQK5LhqV6upaZ2eNUE6RapknuoesgazfaxyJRKSgwA1lk8iEcssUgU9BAAEEmiEQXzBLYi/cLqElP0pkyGgp2PVwKeg3Qgr6Dne2Ep03RaJzJ0t03vdS959LJN6tr4QPP11CPQdu+ClOKMdFQzkajUlBXf1RU1uOnvpuT1krpHvIGsiFhYUmlAskZL75iTze8N8uSxBAAIF8C8TeeVyiD14irff5pRT/+T6p/fRFic7+RqJfvy61s791ulcwYGuJDBgprUbuKYUnXSUVt50pNZceKQUnXCbhvY/dYAiay/FY3BwpjTqvRc3esi3Nl6Gsh6w1jOt/ws4hbFsKQj8RQACBoAjEXrxd5Inrpe3J10rh9gdJxdU/l9qJbyeG7+5MxSaaQ9rmp9a8Et1mHyk9/WapHbGrVIw/T0KVKyV82OmJ97gPYqGY81APYdv07X2+DGU9h+z8mD3klHPKbrX4jQACCCCQV4HY249K7MnrpdMLVVL7+cuy+vSRUnPGeGl37v1SWLVWap69QapfvXuDPtZNettZt/Tip533rjiitYRKO0l4n+NT1tX/7Y+ZQ9huHqS86OEnvgxl91i1+1eW+icu9vJwMegaAgggEASB+I9TJXb/36Tk5Ouk5tXx5nD0H6V22G4S+/J/ssYcui4YvrsUHjVO2u5+tPN6zYfPbMBSfsXRUvyHW6TdFS/LmosPlfAWoyXUZ5iznp5P1pbIgMQDZ7Gn/+Pf+5QtKoKn/4XQOQQQQCDLArGnb5Ki/U6QgqE7OIGsmy+a+pGUbrmTdD/tGunyk7HSvtcAKdx2Pym54FFpd8NHaXugYS6tSqT10X8W3WbaZlkW+DeU01aHhQgggAAC+RSIz50ioeULpfjUG6Ty7j+v78quR0vJ2DNlbbmeOU5t75Z1k+gvrk5duO5ZxR1nSevjL3K2GTdXaNveCGXbK0j/EUAAAYsEYp+/KpHB20ntZy9J3bQvEj2vGbmvrFhVK+VraxLL3Af77tVXuhx7hhSY9zVs0ZkTnW3pNmOf/6/hy9Y9J5StKxkdRgABBOwViE/9TMK9tzD3HE9JGUSsuL106dRaKmpq5KvvFqS89vqHM+TdL+dLpP9WKcvdJ7ot3aZu2/ZGKNteQfqPAAIIWCQQL5shBQNHSnTWpJRex4pKnef3PTVB3vh4RsprfXq0kyXLyyXcY2BieaSXuQ+5Y/0FXbot3aZu2/bmz6uvba8K/UcAAQT8KrB6mUQGbiMV079KGWHdd+9JfI9D5PKz9zWzcaW8JMMHFMrwnkul7v0JUnpsnRQONit0MjN2fReW1fdHJGq2pdsUs23bG6FsewXpPwIIIOADgaK530hlZaUUFxebW1jXDSi6UmT+USIV7zgLIv3NLzMNdq0J46oHIlJX5q64bn0f/CKUfVBEhoAAAghYI9Cus9TNmigFZo7rmLnYy22FP06WisoqJ5TdZbLiRieQq18vkNoZ9QFcO2PDs666Ld2mmG3b3jYcne0jov8IIIAAAp4VCPUabM4nmwlCBo5K6WPBijKpXr4oZZmUjhUpL5aiEWaqzI7mpXhIWu0Qk5IjolJ63Pqv59Vt6TZ127Y3Qtn2CtJ/BBBAwCKB0LCdJDZ/WuIboJK7Hp35dfJTkdbbypqndpO1j5tv/DPnkNvsFZVWW8cktsJk9fPrD/Tqt0npNnXbtjdC2fYK0n8EEEDAIoHwjgdJ3YwJUrjTGCkYZC7OSmqhKR9ITe2Gk4foueOK1wqci7r0wq7K9wskXln/xsgWOzjb0m3qtm1vhLLtFaT/CCCAgEUCIfM9yfFOPaTq0X9I8Wk3p/S8sGyqc7HXgur19ymHuw1w1ilvXSAP79E9ZX190ub310nFnec429Rt297W7//bPpKG/W9wSX3Dl3mOAAIIIJAfgfDRf5Kqiw6Vwu32c75UwpnD2nRFQ7m6ulpeXvWCPF72qIxuv7NM3Xml9CodKNMGlUh5q7D84oP15531CymiP3whNW8+KJF/vJx+MJZlgT9DeV0RkmvhfmtI+qqxFAEEEECgxQTM7Fvh314pqy8+VDo+XyWhzr1lrfnWp9CqxVKzeK5IW5G1dWvk+bK3pEOrmCwa0t4kdv33I7v/u65f3Vi446GiX91YYLYlOqNXgxuc3XUl8aDFRrjZH+TLUNbCOD+xuOgXXdv0BdebXUneiAACCFgkENr7OAmvXS7LD28txSdfK+1u/0Yqbj9LYtMnSMn2JVISLpWDex8oZeUVckRBH4k/frHM7NZaIqP2keLTb5Za/ZpH896Cn50ruq2GgRyLxSRuMsDNA1tofBnKWoxoNJoIY+eLrm2pCP1EAAEEgiJwyCnmpHAHWTN+nBRN/liK//KwtJ/xtRzccbQc2uVwaVPQJiFRs7JQflJQKIU7HyZrx58nNW//VwpOuFziex/r/O99YkXzQHeMNZA1B/RHM8GW5stQrjNFKKirv4ctFoua2WH0pnPz47/JX2z5d0Y/EUAAgfQCux8l8UHbSsULt0vlBQdIZOj2EjZf7ygDtpbqnkOc99SVTZPY2lUSNcvrnrlJ4l37SPjS5yTec6CZ3qvB1drOoer6PeRoNCZ1Jgs0E2xpvgvlosKIuVCgvkju3nJ9KJuSEMq2/LuknwggECSBjj1FdK930Vyp+votib33pMhj/xJZubheoYOZW7PnIAkP2U5Cv7pUQt371S+vqtpQad35Yz1srXvIGsiaCZoNNjQ7etkMyeHDh8mUKVPNvW7rZ3tpxttZFQEEEEAgnwI99zQBbH4aa4vMTtei5n0blAayZoMNzXeh3LtnVxk4aIg5ZM0t2Db8A6SPCCCAQK4F4vGY1FSuktrq8lx/VMbb910oK7oN8BlXjg0ggAACCPhOgN1J35WUASGAAAII2CpAKNtaOfqNAAIIIOA7AULZdyVlQAgggAACtgoQyrZWjn4jgAACCPhOgFD2XUkZEAIIIICArQKEsq2Vo98IIIAAAr4TIJR9V1IGhAACCCBgqwChbGvl6DcCCCCAgO8ECGXflZQBIYAAAgjYKkAo21o5+o0AAggg4DsBQtl3JWVACCCAAAK2ChDKtlaOfiOAAAII+E6AUPZdSRkQAggggICtAoSyrZWj3wgggAACvhMglH1XUgaEAAIIIGCrAKFsa+U20u/IK6+LRKMbWYOXEEAAAQS8KODrUK6qqpYxY3/p/Ez5flpa/x+mz0yss3Ztedp1bFkYeeYFKfjqa2l16lkSnvSdRB590pau008EEEAAASPg61COx+OJIv/30acTj5MfPPLYM8lP7X4ciUjrsT+X0Nq10ubI4yTE3rLd9aT3CCAQOAFfh3JyNSd8/Y003FuePmOWfPr5V8mr5fRxLBZrdPsbe63RNzV4IV7cJmVJvG1pynOeIIAAAgh4WyDi7e5lt3e6t3zlpRckNvrI4+n3kpcvXyF33fOQfKGHgouK5ID995ZfHn+0FBYWypy5P8rtd90v33w7RXp07yZjDtlfxh5xiMz7sSzt8lAoJK+/+a48/+L/ZNbsuc57zjj9RBm97UinH/97/W152PRr6bLl0q9vbxm59Qhn+S+OO0qKi4vlv48+Je+8+6GUV1TIDqO3lVN+/2vp1LFDYgzJD8LmEH31LddIqz+Ok+rbb5TwxEkiR4xJXoXHCCCAAAIeFgjEnvI2o7aSHXfYTpL3lmfMnC2ffPql6Gs7jN4mUaKamloZd+Hl8v6Hn8goE5DDthgiTzz1vDxufrT9/aobnUDef9+9pE/vnvLcC69KbW1do8snmnO7N906Xiorq2T0dqNk4aLFcvGlV8maNWtl8pRpcvO/75aIOex85OEHy5Kly+Qlc5HW7DlznWW33Ha3PPn0C9K+Qzv5yZ67On266pqbJfmwfKLj5kHtGadI3ZGHSXT/faTuoP2k5qJxyS/zGAEEEEDA4wKB2VM+/mdj5fMvJsjD5hzyFZecL4898ZxTmp8fe5QTfG6dPvjoUyc4Dx9zoJx28m+cxeeMu1hefuUN+elRh8v8sgXSpXMn+cOpv5NWrYpEDztrKKdbHg6HndC/6sq/yfAthzpBqwH92hvvyLQfZsjcefOd7Z928gnOHw0d2reXBx56TH79y5/J2vJyeeudD6R3r55y07VXiu5xt23b1vkDYX7ZQucPArfPDX9X3Xtbw0U8RwABBBCwQCAwobzlsCHOnupXEyaJHjL+8OPPZMTwLczh4uEpoTx7zjynbG+89Z58NeEb57EGrrZYPOYcYtYw/eVvTzeHrg9w9nD1cLIeek63XMN0qxHDZOq06Sa4F4oeGtemoat72to++exL6dSpo3w96Vvnea8ePWTGrNnOY/3sU8+o3+NdvqL+vYuXLE2811mJ/yCAAAII+EIgMKGs1dK9Yg1lPWTsPD/uaOd38n80RLXp+duRW2+ZeEn3evX88qUXj5P7//OYvPf+x06Y6/neu267rtHlepvVhRf/3dmTbtOmtbMNd6Pbm8Pm25lzy6++9rbzo8v/cNrvpHPnjjJzXSgPHjxADjLntJPbgP59k5/yGAEEEEDAJwKBCmXdM9ZzyHqed4uhgxIXWyXXUg8Xa9ND07onrE3P4UbNYWoN5u7dusr5fz5TTjeHtq/45/XOeeGyBQtl4IB+aZc//+KrTiDre/bcYxfngq+77vmPs90lS5Y557n33ms3OXrsGOnZo7u5uKv+CuqePXs466xauVoOPXh/5/C1Lqirq3MOgzsv8h8EEEAAAV8JBCqUtXIn/eYXcr85b6tXN6dru++2ozzwn0dFD19rAG4xdLBz9bTu5V5xyQVy6ZXXmDAfJYMG9Xcu3tJttDO3Hl3wtys3WN61S2epMBd4aVtsLuL68KPP5OlnX3Ke63+qqqudx++895Hoj37GlsOGmr4d7Rxa14vT9Dz4Xy66XPbYbWeZ9O1k5w+K8WbPvGMjV2AnNs4DBBBAAAHrBAIXyno4WC/0Stf00HWJuQ3pyssulNvuvM8JSg1LvfXp5ybEq2uqpbS0xLkYS9/foX07+ev5Z0ukMJJ2ua575GEHy5dfTZT7HnjECd1jzB7xQ488JSHzf7qHrW2M2RMOFxQ4F5hpCM8z56wfuOcWOeesU+Suu//j9EOv1NbQPuaow6S9+VwaAggggID/BEJrls9bP+1VlsY3w1wsNdgH5z1ramqcK6tLSopTZHS53jqloZvcGluuV2jruWVdXw+Bu+3P51/i3Pf84D23OoetdZ1TzzhPSkpKzHnqa93VzDTWUbPHXSmlZrl7zjvxIg8QQAABBDwt0JxMDNyecnMqV2Qu7NKfhq25yzWI27Vr23AzoueS7xj/oPzsF793brPSCUS0jTPnn5NbgdmLblvK7FzJJjxGAAEE/ChAKOexqoePOUhGjdzKmYykoqJSunfv4pyXbsv0mHmsCh+NAAII5E+AUM6fvfPJ/fv1Ef2hIYAAAgggsP4EJxYIIIAAAgggkFcBQjmv/Hw4AggggAAC6wUI5fUWPEIAAQQQQCCvAoRyXvn5cAQQQAABBNYLEMrrLXiEAAIIIIBAXgUI5bzy8+EIIIAAAgisF/DdLVFlC5fKDzPmSY35jmMaAggggAACRWYq5KGD+0qvHl08j+G7UNZA7te7i/mWp0KJmJmwdDatxNSU9d/K6Pmi0EEEEEAAgc0UWDdxtH67n05xXGemKa6urnV21gjlzTTN5G26h6yBrN99HIlEpKDADWWTyIRyJrS8FwEEEPC+gBPK8fqv3I3GpMB82582W46e+m5PWfF1D1kDubCw0IRygYTC+p1MNAQQQACBIAhoLsdjcXOkNOoMV7/Ux5bmy1DWQ9YaxvU/4ZRvZrKlMPQTAQQQQGDzBWKhmPNmPYSd/O18m7/FlnmnL0NZzyE7P2YPOeWccsuY8ikIIIAAAnkW0P/tj5nzym4e5Lk7Tf54X4aye6w6+ZB14mKvJtOwIgIIIICAjQJ6kZe2RAYkHnh/NP69T9miInj/nwk9RAABBCwVsCwL/BvKlv77odsIIIAAAsEVIJSDW3tGjgACCCDgMQFC2WMFoTsIIIAAAsEVIJSDW3tGjgACCCDgMQFC2WMFoTsIIIAAAsEVIJSDW3tGjgACCCDgMQFC2WMFoTsIIIAAAsEVIJSDW3tGjgACCCDgMQFC2WMFoTsIIIAAAsEVIJSDW3tGjgACCCDgMQFC2WMFoTsIIIAAAsEVIJSDW3tGjgACCCDgMQFC2WMFoTsIIIAAAsEVIJSDW3tGjgACCCDgMQFC2WMFoTsIIIAAAsEVIJSDW3tGjgACCCDgMQFC2WMFoTsIIIAAAsEVIJSDW3tGjgACCCDgMQFC2WMFoTsIIIAAAsEVIJSDW3tGjgACCCDgMQFC2WMFoTsIIIAAAsEVIJSDW3tGjgACCCDgMQFC2WMFoTsIIIAAAsEVIJSDW3tGjgACCCDgMQFC2WMFoTsIIIAAAsEVIJSDW3tGjgACCCDgMQFC2WMFoTsIIIAAAsEVIJSDW3tGjgACCCDgMQFC2WMFoTsIIIAAAsEVIJSDW3tGjgACCCDgMQFC2WMFoTsIIIAAAsEVIJSDW3tGjgACCCDgMQFC2WMFoTsIIIAAAsEVIJSDW3tGjgACCCDgMQFC2WMFoTsIIIAAAsEVIJSDW3tGjgACCCDgMQFC2WMFoTsIIIAAAsEVIJSDW3tGjgACCCDgMQFC2WMFoTsIIIAAAsEVIJSDW3tGjgACCCDgMQFC2WMFoTsIIIAAAsEVIJSDW3tGjgACCCDgMQFC2WMFoTsIIIAAAsEVIJSDW3tGjgACCCDgMQFC2WMFoTsIIIAAAsEVIJSDW3tGjgACCCDgMQFC2WMFoTsIIIAAAsEVIJSDW3tGjgACCCDgMQFC2WMFoTsIIIAAAsEVIJSDW3tGjgACCCDgMQFC2WMFoTsIIIAAAsEVIJSDW3tGjgACCCDgMQFC2WMFoTsIIIAAAsEVIJSDW3tGjgACCCDgMQFC2WMFoTsIIIAAAsEVIJSDW3tGjgACCCDgMQFC2WMFoTsIIIAAAsEVIJSDW3tGjgACCCDgMQFC2WMFoTsIIIAAAsEVIJSDW3tGjgACCCDgMQFC2WMFoTsIIIAAAsEVIJSDW3tGjgACCCDgMQFC2WMFoTsIIIAAAsEVIJSDW3tGjgACCCDgMQFC2WMFoTsIIIAAAsEVIJSDW3tGjgACCCDgMQFC2WMFoTsIIIAAAsEVIJSDW3tGjgACCCDgMQFC2WMFoTsIIIAAAsEVIJSDW3tGjgACCCDgMQFC2WMFoTsIIIAAAsEVIJSDW3tGjgACCCDgMQFC2WMFoTsIIIAAAsEVIJSDW3tGjgACCCDgMQFC2WMFoTsIIIAAAsEVIJSDW3tGjgACCCDgMQFC2WMFoTsIIIAAAsEVIJSDW3tGjgACCCDgMQFC2WMFoTsIIIAAAsEVIJSDW3tGjgACCCDgMQFC2WMFoTsIIIAAAsEVIJSDW3tGjgACCCDgMQFC2WMFoTsIIIAAAsEVIJSDW3tGjgACCPheYNz5/2fVGAllq8pFZxFAAAEEmipwznl/lTvvvLOpq3tiPf+GctwTvnQCAQQQQCAPAn8690InkFevWJSHT9/8j4xs/ls9/M51gZycy/F48jMP952uIYAAAghkJPCncy+Qu+66U9asWlK/HYv+59+XoawB7PzE4hILxSQc9u8BgYz+5fJmBBBAwGcCuoesgVy+eqnETQacd/7FcsWlF1kzSl+GciwWk2g0mgjjmAnpkDUloaMIIIAAApsj4J5D1j1kDeRzzrtI7rjjDllUNntzNpeX9/gylOtMIBfU1TmgsVhUQiGNZPNDMuflHxkfigACCORaQK+y1ou6Vi5bYD5K95D/zwnkpYvmiWaCLc13oVxUGJHq6lrH391brg9ls4hQtuXfJf1EAAEEmiVwxWUXyeKFczSPnaaHrHUPWQNZM0GzwYZmRy+bITl8+DCZMmWq1NTW7yk3462sigACCCDgQwENZM0GG5rvQrl3z64ycNAQc8iai7ts+AdIHxFAAIFcC8TjMampXCW11eW5/qiMt++7UFZ0G+AzrhwbQAABBBDwnQC7k74rKQNCAAEEELBVgFC2tXL0GwEEEEDAdwKEsu9KyoAQQAABBGwVIJRtrRz9RgABBBDwnQCh7LuSMiAEEEAAAVsFCGVbK0e/EUAAAQR8J0Ao+66kDAgBBBBAwFYBQtnWytFvBBBAAAHfCRDKvispA0IAAQQQsFWAULa1cvQbAQQQQMB3AoSy70rKgBBAAAEEbBUglG2tHP1GAAEEEPCdAKHsu5IyIAQQQAABWwUIZVsrR78RQAABBHwnQCj7rqQMCAEEEEDAVgFC2dbK0W8EEEAAAd8JEMq+KykDQgABBBCwVYBQtrVy9BsBBBBAwHcChLLvSsqAEEAAAQRsFSCUba0c/UYAAQQQ8J0Aoey7kjIgBBBAAAFbBQhlWytHvxFAAAEEfCdAKPuupAwIAQQQQMBWAULZ1srRbwQQQAAB3wkQyr4rKQNCAAEEELBVgFC2tXL0GwEEEEDAdwKEsu9KyoAQQAABBGwVIJRtrRz9RgABBBDwnQCh7LuSMiAEEEAAAVsFCGVbK0e/EUAAAQR8J0Ao+66kDAgBBBBAwFYBQtnWytFvBBBAAAHfCRDKvispA0IAAQQQsFWAULa1cvQbAQQQQMB3AoSy70rKgBBAAAEEbBUglG2tHP1GAAEEEPCdAKHsu5IyIAQQQAABWwUIZVsrR78RQAABBHwnQCj7rqQMCAEEEEDAVgFC2dbK0W8EEEAAAd8JEMq+KykDQgABBBCwVYBQtrVy9BsBBBBAwHcChLLvSsqAEEAAAQRsFSCUba0c/UYAAQQQ8J0Aoey7kjIgBBBAAAFbBQhlWytHvxFAAAEEfCdAKPuupAwIAQQQQMBWAULZ1srRbwQQQAAB3wkQyr4rKQNCAAEEELBVgFC2tXL0GwEEEEDAdwKEsu9KyoAQQAABBGwVIJRtrRz9RgABBBDwnQCh7LuSMiAEEEAAAVsFCGVbK0e/EUAAAQR8J0Ao+66kDAgBBBBAwFYBQtnWytFvBBBAAAHfCRDKvispA0IAAQQQsFWAULa1cvQbAQQQQMB3AoSy70rKgBBAAAEEbBUglG2tHP1GAAEEEPCdAKHsu5IyIAQQQAABWwUIZVsrR78RQAABBHwnQCj7rqQMCAEEEEDAVgFC2dbK0W8EEEAAAd8JEMq+KykDQgABBBCwVYBQtrVy9BsBBBBAwHcChLLvSsqAEEAAAQRsFSCUba0c/UYAAQQQ8J0Aoey7kjIgBBBAAAFbBQhlWytHvxFAAAEEfCdAKPuupAwIAQQQQMBWAULZ1srRbwQQQAAB3wkQyr4rKQNCAAEEELBVgFC2tXL0GwEEEEDAdwKEsu9KyoAQQAABBGwVIJRtrRz9RgABBBDwnQCh7LuSMiAEEEAAAVsFCGVbK0e/EUAAAQR8J0Ao+66kDAgBBBBAwFYBQtnWytFvBBBAAAHfCRDKvispA0IAAQQQsFWAULa1cvQbAQQQQMB3AhHfjcgM6JJXJ8vLUxZITV3Mj8Nr8TEVRcJy6PCectnBI1r8s/lABBBAIEgCvgtlDeS355RLt2E7SaRNaZBqmbOx1lWuNabfixhbgjlnzGwYAQQQEN+Fsu4hd+mzhUQXTJW6aB0lzoJAqCAiJZ16mKMP0wjlLHiyCQQQQKAxAd+Fsh6yjq9eJHECubGaN3u5Y2lMOR3QbDregAACCDRLwJcXehHIzfo30KSVMW0SEyshgAACGQn4MpQzEuHNCCCAAAII5EmAUM4TPB+LAAIIIIBAQwFCuaEIzxFAAAEEEMiTAKGcJ3g+FgEEEEAAgYYChHJDEZ4jgAACCCCQJwFCOU/wfCwCCCCAAAINBQjlhiI8RwABBBBAIE8ChHKe4PlYBBBAAAEEGgoQyg1FeI4AAggggECeBAjljcAXRQpkp4HdZfchPaWkVeFG1mz8pSFd28vfx+4qx4we0vhKWXhFtz+qT5csbIlNIIAAAgjkS8B3c19nAzIcCsmVY3eRn2zRO2VzC1dXyJ+f+EBmL12dsnxjT4Z27yB7D+stPdsXy1NfTd/Yqpv92sl7biW/3W24xM0W9vrXUxKL6yORfbfsI9rnyWXLnef8BwEEEEDA2wLsKaepz8WH7egEcjQWly/mLJYPpy+QNVU10qNdsVx48PZp3pHfRUvXVjkdqIumfn/05UfuIn/Ye2R+O8enI4AAAgg0WYA95QZUupe8//C+zl7ncXe9KgtWlSfW2HNoL/lm/rLEc688eGbCDPloxgJZbf5wcPeSe3UokZBXOkg/EEAAAQSaJEAoN2DSUAuZYNZAa9u60ITy+hXe/6Es8UT3pvfbsq/c+ObX8uyEmYnllxy+k+wzrI9c+9oEeXHSrMRyfXDegds5gV/aukgqqmvlzve+NYe0ZzjrHDZqoPP61a9+KT/bfogM7tZeas3XUD7y+TR59PMf5Jbj9xI9FK5t6ZpKOSfpMLoG8MO/P0hmmsPqJ97/hvxpv22cPui6I3t3lidOPcQJ67Mfez/ljwx9nYYAAggg4B0BDl+nqYWGnra7T9hP/nLQaGnfptUGa3Usbi2FBWEpbXABWKeS+uUa6Mltix4d5ajtBptwFFlZUe1cOHbuAdvJboN7Oqvp+rq9v43Z0Qnf1ZU10qYoIr/bfYQ8eOIBMsy8f4npl/7B0M0cRr/tF3snNl9cGHHe26m4vp9Du3WQDuse655/p5JW0qW0tbRrU5R4Dw8QQAABBLwnQCinqclFz34sdbGYFIRDcuS2g+Tlsw5PBGOa1Zu86K9mu4fe/LwcdssL8snMhc77ztgn9ZxvVW1UfnrHK3L4rS86e9K6x67nsm99e5IcffvLcvCNzzl7ve1NwGr4pmtnPvKu3PLWROeliT8ulf2uf9b5mbpwRbrVWYYAAggg4BEBQjlNIfRq5SP//ZK8MWWeaEhqG2xubbrnN/vJXua88ua0aSYQ35k6P/HWq8xham29O5QmlumDb8uWySJzxbS2576uP/yt11I/8tk0Z9lac9h7/sr689zDeqQPZWdF/oMAAgggYJ0AodxIyfQQ8yXPf2r2MJ8R3cOtqKlzzjNfcEh2rr7WQ9F6/loPWTfWVlVWOxecxfSYd1JzD6+3MYetaQgggAAC/hFoPBH8M8aMR6J7uL+65zVnO+3SnF/O9AP0vC8NAQQQQAABQrmJ/wZ0z1b3V9291vi6CTramyupN6fphVgaxrXm3mL3NqbN2Q7vQQABBBDwjwCh3KCW2/fvJm+cM9a5Ujr5pTP3GeUcvl62tv7KbPf+5V0G1V89revqVJx67jld67juamj3tXP339Z5OKsZs4O5723K7+i6PxpKilKvAm/Ke1kHAQQQQCA/ApyUbOC+u7lFSW9F0nuKdfrK+SvWSte2bZzI8wAcAAAMC0lEQVQfXdW9QOvFSbOd4B7UtZ389/cHytzla2WnAd2kdSPnefU2pqdOP1Q+NVdd61XTI3p1cj7Z3V6DbmT8VO+pHnfgaBli7ne+6ujdnM877aG3pWzdRWIZfwAbQAABBBDIugB7yg1Ibza3El3+4meyytwnrPf1anhqKOtVz3rB16ezFjnv+N5cTf3QJ1OdQ9oDOrcTne1LD3Hf88Fk53WdolOb+/tDM+NWiQl7vcVKt6kXjp335Afi3qbkrue8aRP/acrh7mVm6k3tq97XrH3TPebeZpIRGgIIIICAdwVCa5bPS720N4O+vj5tsdzz2Tz5+57dZHD/vhlsafPfus01r0uP9m03fwNJ79Rzvn07lZpZsCqkpq7+1qikl52Huo7OqKW3Men54U01PZes56M19Fui6V5/W3NYfbH5gyHTtnDVGpk47oBMN8P7EUAAgUAJzJgzr8mZmJXD1y9MXmjCeK58Pm/d5BQmlP3QdI90zrI1Gx2KrvOjOcTd1Ka3WrVkqzR75PpDQwABBBDwvkBGofz4xPlOGH+7sOlfZeh9EnqIAAIIIIBAdgUOGv+xnLRTPzl2m9SvBG74KZsVyg9+Mc+E8RyZvmz9Nyg13DDPEUAAAQQQQKBeQHdez3n+W/n3h7NMOPeXE3ZIf4q3yaGsFyLdbQ5R32vC+MdVmZ+fpFAIIIAAAggETUB3Zi98ZbL8+6NZcqIJ59+bvWf9ngW3bTKUy835yHs+nSv3fD5Xlpa37PlQt5P8RgABBBBAwE8CunN7+evfy20mnE/asZ+ctHM/5w6dRkNZA1iDWANZg5mGAAIIIIAAAtkV0Ky9+p0f5FYNZxPMG4SyprceotZD1c25dza73WRrCCCAAAIIBEdAd35vfn/m+lDW49x68ZZexEVDAAEEEEAAgZYXiOgVYXqPsd7eREMAAQQQQACB/AlE9N4pGgIIIIAAAgjkX8B3c18XRcJ8FWIO/l3pzGVqS0MAAQQQyJ1ApLRiZe62noctHzq8p7w7c5kUFkSc7yvOQxd895EayLXROlFbGgIIIIBA8wWamrUbXH3d/I/y1jsuO3iEXPLqZHl5ygLzJRKb/oIIb/Xem73RPWQNZLWlIYAAAgjkTiDStlMXqa4034JkfvzSNDwIEL9Uk3EggAACwREIF0QKpbhte2nbqasUtSkOzsgZKQIIIIAAAh4TSFy5UxCJOOHcrks3aVVcIuZrgmkIIIAAAggg0IICG5xTDocLpE1pOxPMpVJdUW4Oa5dL3FzoQ0MAAQQQQACB3AiEzZdStG3Xdv2MXg0/JhwOm3BuK61LSp1g1oCOxbhwqqETzxFAAAEEENhcgYKCAmnXrp0TyBrMG+wpN9xwyBzH1r3mojbJ4RxtuBrPEUAAAQQQQKCJAhFzytgN4+TTxZsMZXf7+iY916w/eqV2tTmsHa3j26NcH34jgAACCCCwKYHCwsJ1YVyadtUmh3Lyu/Uqbf2pD+cKE861yS/zGAEEEEAAAQSSBIqKikwYt5XStunD2F11s0LZfbMbzrXVleaisAqpq61xX+I3AggggAACgReYvGiNPDRxufTq3bQZETMKZVe7sFUb0Z/a6ipnIhJ3Ob8RQAABBBAIosCE+avk2W8XyidzVjRr+FkJZfcTC1u1NuHcWv7xwUL5bbRY9hzU2X2J3wgggAACCPheQENYw1hDeXNaaMTF/83ZTcijerWT47brLftv0XVz+sZ7EEAAAQQQsELgPfNFSM98s1D0cHUmLaeh7HZsWLdSJ5zHjOjuLuI3AggggAAC1gu8Pm2Js2c8fWl5VsbSIqHs9nRAp2InnI8e1bQT3u77+I0AAggggICXBF6cvMgJ43krK7ParRYNZbfnPdq1NuHcywnoguS7pt0V+I0AAggggIDHBPS75fV8sR6mXry2Oie9y0souyPpWFzoBPNx2/aW4qICdzG/EUAAAQQQ8IxAZW3UCWMN5JWVuZ2XI6+h7IprIGsw60VhGtQ0BBBAAAEE8i2gAaxBrD8azC3RPBHK7kD1ULYGsx7a1kPcNAQQQAABBFpaQA9N6yFqDWM9ZN2SzVOhnDxwvRhMA1ovDqMhgAACCCCQawG9aEuDWC/iylfzbCi7IHoblYaz3lZFQwABBBBAINsCejuThrHe3pTv5vlQdoF0AhINZ52QhIYAAggggECmAjrRhx6m1ok/vNKyOs1mLgf1hvkLRn906k4N5x37dcjlx7FtBBBAAAGfCmzuvNQtwWFNKLsY75u/aPRHQ1nDmfm1XRl+I4AAAghsTCDTeak3tu1svWZdKLsD/3zuStEf5td2RfiNAAIIIJBOIFvzUqfbdraXWXNOeVMDZ37tTQnxOgIIIBAsgWzPS90Ser4JZReL+bVdCX4jgAACwRTI1bzULaHpu1B20Zhf25XgNwIIIOB/gZaYl7olFH0byi4e82u7EvxGAAEE/CfQkvNSt4Se70PZRWR+bVeC3wgggID9AvmYl7ol1AITyi4m82u7EvxGAAEE7BPI57zULaEVuFBORmV+7WQNHiOAAALeFfDCvNQtoRPoUHaBmV/bleA3Aggg4C0BL81L3RIyhHKSMvNrJ2HwEAEEEMijgBfnpW4JDmtn9MoFDvNr50KVbSKAAAJNF/DyvNRNH8Xmr0kop7Fjfu00KCxCAAEEcihgw7zUORx+YtOEcoJiwwfMr72hCUsQQACBbArYNC91Nsfd2LY4p9yYTJrlzK+dBoVFCCCAwGYI2Dgv9WYMs9lvIZSbTSbC/NqbgcZbEEAAASNg87zULVFAQjkDZebXzgCPtyKAQGAE/DIvdUsUjFDOgjLza2cBkU0ggIDvBPw2L3VLFIhQzqIy82tnEZNNIYCAtQJ+nZe6JQpCKOdAmfm1c4DKJhFAwPMCfp+XuiUKQCjnWJn5tXMMzOYRQCDvAkGZl7oloAnlllA2n8H82i0EzccggECLCQRtXuqWgCWUW0I56TOYXzsJg4cIIGClQFDnpW6JYjGjV0soJ30G82snYfAQAQSsEgj6vNQtUSxCuSWU03wG82unQWERAgh4UoB5qVuuLIRyy1mn/STm107LwkIEEPCAAPNSt3wROKfc8uYb/UTm194oDy8igEALCDAvdQsgN/IRhHIjMPlezPza+a4An49A8ASYlzr/NSeU81+DjfaA+bU3ysOLCCCQoQDzUmcImOW3E8pZBs3V5phfO1eybBeBYAowL7U3604oe7MujfaK+bUbpeEFBBBoggDzUjcBKY+rEMp5xM/ko5lfOxM93otA8ASYl9qOmhPKdtRpo71kfu2N8vAiAoEWYF5qu8pPKNtVr432lvm1N8rDiwgESoB5qe0sN6FsZ9022mvm194oDy8i4GsB5qW2u7zM6GV3/dL2nvm107KwEAFfCzAvtT/KSyj7o45pR8H82mlZWIiArwSYl9pX5RRC2V/1TDsa5tdOy8JCBKwWYF5qq8vXaOc5p9wojX9fYH5t/9aWkflfgHmp/V1jQtnf9d3o6Jhfe6M8vIiApwSYl9pT5chZZwjlnNHas2Hm17anVvQ0WALMSx2seutoCeXg1bzRETO/dqM0vIBAiwowL3WLcnvqwwhlT5XDG51hfm1v1IFeBE+AeamDV/OGIyaUG4rwPCHA/NoJCh4gkFMB5qXOKa9VGyeUrSpX/jrL/Nr5s+eT/SvAvNT+re3mjoxQ3ly5gL6P+bUDWniGnVUB5qXOKqevNkYo+6qcLTcY5tduOWs+yT8CzEvtn1rmaiTM6JUrWZ9vl/m1fV5ghpdVAealziqnrzdGKPu6vLkfHPNr596YT7BXgHmp7a1dvnpOKOdL3mefy/zaPisow8lIgHmpM+IL9Js5pxzo8udu8MyvnTtbtuxdAeal9m5tbOkZoWxLpSztJ/NrW1o4ut0sAealbhYXK29EgFDeCA4vZU+A+bWzZ8mWvCHAvNTeqIPfekEo+62iHh8P82t7vEB0b5MCzEu9SSJWyECAUM4Aj7duvgDza2++He/MjwDzUufHPWifSigHreIeGy/za3usIHRnAwHmpd6AhAU5FCCUc4jLppsnwPzazfNi7dwKMC91bn3ZenoBQjm9C0vzKMD82nnE56OFean5R5BPgf8HsF67IHaz58oAAAAASUVORK5CYII=;" vertex="1" parent="1">
          <mxGeometry x="340" y="-370" width="196.49" height="220" as="geometry" />
        </mxCell>
      </root>
    </mxGraphModel>
  </diagram>
</mxfile>
